<svg xmlns="http://www.w3.org/2000/svg" viewBox="0 0 55 59.55"><defs><style>.cls-1{fill:none;stroke:#fff;stroke-miterlimit:10;}.cls-2{fill:#fff;}</style></defs><title>자산 15</title><g id="레이어_2" data-name="레이어 2"><g id="레이어_1-2" data-name="레이어 1"><rect class="cls-1" x="4.08" y="39.53" width="46.83" height="19.52"/><path class="cls-2" d="M17.26,53.81h-1.2V46.26H14.13v-1h3.13Z"/><path class="cls-2" d="M21.92,53.38a3.52,3.52,0,0,1-1.23-1.52,6.26,6.26,0,0,1,0-4.66,3.41,3.41,0,0,1,1.23-1.52,3.41,3.41,0,0,1,3.62,0,3.55,3.55,0,0,1,1.23,1.52,6.26,6.26,0,0,1,0,4.66,3.67,3.67,0,0,1-1.23,1.52,3.36,3.36,0,0,1-3.62,0ZM25.38,52A4.1,4.1,0,0,0,26,49.53a4.18,4.18,0,0,0-.63-2.47,2,2,0,0,0-3.31,0,4.33,4.33,0,0,0-.61,2.47A4.25,4.25,0,0,0,22.07,52a2,2,0,0,0,3.31,0Z"/><path class="cls-2" d="M29.36,53.38a3.67,3.67,0,0,1-1.23-1.52,6.26,6.26,0,0,1,0-4.66,3.55,3.55,0,0,1,1.23-1.52,3.41,3.41,0,0,1,3.62,0,3.41,3.41,0,0,1,1.23,1.52,6.26,6.26,0,0,1,0,4.66A3.52,3.52,0,0,1,33,53.38a3.36,3.36,0,0,1-3.62,0ZM32.83,52a4.17,4.17,0,0,0,.62-2.46,4.25,4.25,0,0,0-.62-2.47,2,2,0,0,0-1.66-.86,1.91,1.91,0,0,0-1.65.86,4.25,4.25,0,0,0-.62,2.47A4.17,4.17,0,0,0,29.52,52a1.9,1.9,0,0,0,1.65.87A2,2,0,0,0,32.83,52Z"/><path class="cls-2" d="M36.81,53.38a3.61,3.61,0,0,1-1.24-1.52,6.39,6.39,0,0,1,0-4.66,3.49,3.49,0,0,1,1.24-1.52,3.14,3.14,0,0,1,1.8-.52,3.18,3.18,0,0,1,1.81.52,3.49,3.49,0,0,1,1.24,1.52,6.39,6.39,0,0,1,0,4.66,3.61,3.61,0,0,1-1.24,1.52,3.18,3.18,0,0,1-1.81.53A3.15,3.15,0,0,1,36.81,53.38ZM40.27,52a4.1,4.1,0,0,0,.62-2.46,4.18,4.18,0,0,0-.62-2.47,2,2,0,0,0-3.31,0,4.25,4.25,0,0,0-.61,2.47A4.18,4.18,0,0,0,37,52a2,2,0,0,0,3.31,0Z"/><path class="cls-1" d="M53.19,2.94a1.22,1.22,0,0,0,0-2.44H1.81a1.22,1.22,0,0,0,0,2.44H5.59l-5,31.29H54.41l-5-31.29Z"/><polygon class="cls-2" points="41.42 21.23 27.5 7.8 13.58 21.23 20.97 21.23 20.09 27.94 34.91 27.94 34.03 21.23 41.42 21.23"/></g></g></svg>