<svg xmlns="http://www.w3.org/2000/svg" viewBox="0 0 282.14 112.63"><defs><style>.cls-1{fill:#f2f1df;}</style></defs><title>자산 11</title><g id="레이어_2" data-name="레이어 2"><g id="레이어_1-2" data-name="레이어 1"><path class="cls-1" d="M150.12,72.65a94.75,94.75,0,0,1-14.38,1.06H97.43V60.07h9.18V32.55H97.93V18.91h59.75V32.55H149V59.33a37.79,37.79,0,0,0,11.78-2.73V70A45.2,45.2,0,0,1,150.12,72.65Zm33,24.86v14.75H102.64V80.15h16V97.51ZM134,60.07V32.55H121.61V60.07H134Zm58.64-6.32H181.36V88H165.74V17.43h15.62V37.76h11.28Z"/><polygon class="cls-1" points="94.46 54.62 94.46 39.24 83.18 39.24 83.18 17.43 67.56 17.43 67.56 112.63 83.18 112.63 83.18 86.6 94.46 86.6 94.46 71.23 83.18 71.23 83.18 54.62 94.46 54.62"/><path class="cls-1" d="M199.21,35h35.45v10q0,14.38-4.15,25t-12.09,16.3q-7.93,5.7-19.21,5.7v15.62q15.61,0,27.33-7.62t18-21.82Q250.9,64,250.9,45V20H199.21Z"/><path class="cls-1" d="M268.68,0H49.47a26,26,0,0,0-26,26v3.78H1.86V45.07H23.43a100.4,100.4,0,0,1-3.6,23.24q-3,10.23-8,16.37T0,91.68v16.11a30.09,30.09,0,0,0,18.35-7.37q8.17-6.89,13.38-19.15l20.21,26.52L63.59,97,37.19,63.79A151.32,151.32,0,0,0,39.3,45.07H59.87V29.82H39.42v-7l0,0a10,10,0,0,1,10-10H266.39v99.83h15.75V0Z"/></g></g></svg>