<svg xmlns="http://www.w3.org/2000/svg" viewBox="0 0 428.23 84.84"><defs><style>.cls-1{fill:#161514;stroke:#000;}</style></defs><title>자산 9</title><g id="레이어_2" data-name="레이어 2"><g id="레이어_1-2" data-name="레이어 1"><path class="cls-1" d="M191.17,5.53a25.85,25.85,0,0,1,11.17,9.78,27.78,27.78,0,0,1,3.94,15,27.86,27.86,0,0,1-3.94,14.94A25.47,25.47,0,0,1,191.17,55a39.64,39.64,0,0,1-17,3.39H159.28V79.86H142.17V2.08h32A39,39,0,0,1,191.17,5.53ZM185,40.25q4-3.49,4-9.94t-4-10q-4-3.55-11.78-3.56H159.28v27h13.89Q181,43.75,185,40.25Z"/><path class="cls-1" d="M224.17,72q-8.78-9.23-8.78-26.33V2.08h17.12V45q0,20.89,16.44,20.89,8.12,0,12.28-5T265.39,45V2.08h16.89V45.64q0,17.11-8.77,26.33t-24.67,9.22Q232.94,81.19,224.17,72Z"/><path class="cls-1" d="M303.34,78.69a39.13,39.13,0,0,1-13.17-6.5L296,58.64a39,39,0,0,0,11.33,5.89,40.32,40.32,0,0,0,13,2.22q7.34,0,10.83-2.28a6.91,6.91,0,0,0,3.5-6,5.91,5.91,0,0,0-2.05-4.61,15.19,15.19,0,0,0-5.28-3c-2.15-.74-5.07-1.55-8.78-2.44a112.15,112.15,0,0,1-13.77-4.23,22.8,22.8,0,0,1-9.23-6.77q-3.88-4.66-3.89-12.45a22.43,22.43,0,0,1,3.5-12.28A23.94,23.94,0,0,1,305.61,4q7-3.23,17.12-3.22a53.64,53.64,0,0,1,13.83,1.78,40.35,40.35,0,0,1,11.83,5.11l-5.22,13.67a39.71,39.71,0,0,0-20.56-6.12q-7.22,0-10.61,2.45a7.58,7.58,0,0,0-3.39,6.44,6.31,6.31,0,0,0,3.95,6,60.09,60.09,0,0,0,12.05,3.83,118.7,118.7,0,0,1,13.84,4.22,23.25,23.25,0,0,1,9.28,6.67q3.88,4.56,3.88,12.33a22,22,0,0,1-3.55,12.17A24.14,24.14,0,0,1,337.45,78q-7.06,3.23-17.28,3.22A57,57,0,0,1,303.34,78.69Z"/><path class="cls-1" d="M427.73,79.86H410.61V48H377.06V79.86H360V2.08h17.11V32.75h33.55V2.08h17.12Z"/><path class="cls-1" d="M89.92.87,2.5,43.75a3.56,3.56,0,0,0,.4,6.57l20.08,7a2.79,2.79,0,0,0,2.6-.4l45.5-33.8a.33.33,0,0,1,.44.48L37.77,62.4h0V80.52a3.82,3.82,0,0,0,6.61,2.6l13-13.94L80,77a3.57,3.57,0,0,0,4.69-2.85L95,4.6A3.57,3.57,0,0,0,89.92.87Z"/></g></g></svg>