<svg xmlns="http://www.w3.org/2000/svg" viewBox="0 0 49.98 57.91"><defs><style>.cls-1{fill:#fdca01;}</style></defs><title>자산 2</title><g id="레이어_2" data-name="레이어 2"><g id="레이어_1-2" data-name="레이어 1"><path class="cls-1" d="M49.92,18.87h0C49.48,12.43,45.15,3.81,43.06,0H20.33l2.5,6.71H15.68l3.73,9.22H16.3l1.87,7.92L9.87,13H13.6L6.76,3.81h3.32L6.81.2C4.69,4.1.5,12.53.06,18.87h0S-.5,23.7,1.81,26l0,0A10.59,10.59,0,0,0,3,27.36H3a8,8,0,0,0,.8.71l.08.07a36.41,36.41,0,0,0,9.78,5.25c7.69,2.94,8.46,4.51,8.84,6.12a37,37,0,0,1,.38,4.06c.17,2.88.15,5.69-1.6,7.5s-2.82,3.31-10.75,5.24c0,0-3.88.48-2.74,1.6H42.16c1.14-1.12-2.74-1.6-2.74-1.6-7.93-1.93-9-3.42-10.75-5.24s-1.77-4.62-1.6-7.5a37,37,0,0,1,.38-4.06c.38-1.61,1.15-3.18,8.84-6.12a36.41,36.41,0,0,0,9.78-5.25l.08-.07a9.91,9.91,0,0,0,.8-.71h0A10.59,10.59,0,0,0,48.15,26v0C50.48,23.7,49.92,18.87,49.92,18.87Z"/></g></g></svg>