<svg xmlns="http://www.w3.org/2000/svg" viewBox="0 0 65.33 59.01"><defs><style>.cls-1{fill:#fff;}</style></defs><title>자산 1</title><g id="레이어_2" data-name="레이어 2"><g id="레이어_1-2" data-name="레이어 1"><path class="cls-1" d="M26.9,44.28,13.11,30.48a2.18,2.18,0,0,0-3.08,0h0a2.18,2.18,0,0,0,0,3.08l7.21,7.2a1.75,1.75,0,0,1,0,2.46h0a1.74,1.74,0,0,1-2.46,0L6.56,35a2.88,2.88,0,0,1-.85-2V21.51a2.85,2.85,0,0,0-2.85-2.86h0A2.86,2.86,0,0,0,0,21.51V34.45a5.81,5.81,0,0,0,1.7,4.11L11.77,48.63a1.37,1.37,0,0,1,.4.95v8.91a.51.51,0,0,0,.51.52h13.7a.52.52,0,0,0,.52-.52V44.28Z"/><path class="cls-1" d="M38.44,44.28l13.78-13.8a2.19,2.19,0,0,1,3.09,0h0a2.19,2.19,0,0,1,0,3.08l-7.2,7.2a1.74,1.74,0,0,0,0,2.46h0a1.74,1.74,0,0,0,2.46,0L58.78,35a2.87,2.87,0,0,0,.84-2V21.51a2.86,2.86,0,0,1,2.86-2.86h0a2.85,2.85,0,0,1,2.85,2.86V34.45a5.81,5.81,0,0,1-1.7,4.11L53.56,48.63a1.36,1.36,0,0,0-.39.95v8.91a.52.52,0,0,1-.52.52H39a.51.51,0,0,1-.51-.52V44.28Z"/><path class="cls-1" d="M33.54,15.66V35.49a.42.42,0,0,0,.63.37l17.5-10.11a.4.4,0,0,0,.22-.36V8.05a.42.42,0,0,0-.59-.39L33.79,15.27A.43.43,0,0,0,33.54,15.66Z"/><path class="cls-1" d="M32.82,13.8l17-7.41a.38.38,0,0,0,0-.7L32.79,0a.33.33,0,0,0-.24,0L15.6,5.66a.38.38,0,0,0,0,.7l17,7.44A.39.39,0,0,0,32.82,13.8Z"/><path class="cls-1" d="M31.54,15.27,14,7.59a.42.42,0,0,0-.59.39V25.39a.41.41,0,0,0,.21.36l17.5,10.11a.43.43,0,0,0,.64-.37V15.66A.42.42,0,0,0,31.54,15.27Z"/></g></g></svg>