<svg xmlns="http://www.w3.org/2000/svg" viewBox="0 0 93.57 32.48"><defs><style>.cls-1{fill:#00de5a;}</style></defs><title>자산 13</title><g id="레이어_2" data-name="레이어 2"><g id="레이어_1-2" data-name="레이어 1"><circle cx="16.24" cy="16.24" r="16.24" transform="translate(-3.34 28.24) rotate(-76.51)"/><path d="M48,7a7.76,7.76,0,0,0-5.3,2.12V7.38H39.42V28h3.29V21.31A7.75,7.75,0,0,0,48,23.42,8.07,8.07,0,0,0,56,15.23,8.07,8.07,0,0,0,48,7Zm-.46,13.42a5,5,0,0,1-4.84-5.22,4.85,4.85,0,1,1,9.68,0A5,5,0,0,1,47.55,20.45Z"/><path d="M70.42,7.38V8.85a7.77,7.77,0,0,0-5-1.82,8.07,8.07,0,0,0-7.93,8.2,8.06,8.06,0,0,0,7.93,8.19,7.71,7.71,0,0,0,5-1.82v1.52H74V7.38ZM65.91,20.45a5,5,0,0,1-4.84-5.22,4.85,4.85,0,1,1,9.68,0A5,5,0,0,1,65.91,20.45Z"/><polygon points="89.79 7.38 85.32 17.3 80.31 7.38 76.53 7.38 83.46 21.44 80.48 28.03 84.27 28.03 93.57 7.38 89.79 7.38"/><polygon class="cls-1" points="19.01 8.6 19.01 16.84 13.27 8.6 8.68 8.6 8.68 23.88 13.47 23.88 13.47 15.64 19.15 23.88 23.81 23.88 23.81 8.6 19.01 8.6"/></g></g></svg>